2024-05-28 11:08:37.837 [info] [3719071] Session logging begin   : reprostim-videocapture 1.8.0.225, session_logger_2024.05.28.11.08.37.837, start_ts=2024.05.28.11.08.37.837
2024-05-28 11:08:37.837 [info] [3719071]         Video device    : /dev/video2, S/N: B208220302195, USB Capture DVI+, bus info: usb-0000:00:14.0-2
2024-05-28 11:08:37.837 [info] [3719071]                         : 1920x1080, 60 fps
2024-05-28 11:08:37.837 [info] [3719071]         Audio-in device : hw:2,1
2024-05-28 11:08:37.837 [info] [3719071]                         : hdmi/HDMI Capture Volume=95%
2024-05-28 11:08:37.837 [info] [3719071]                         : line-in/Line In Capture Volume=95%
2024-05-28 11:08:37.837 [info] [3719071] REPROSTIM-METADATA-JSON: {"aDev":"hw:2,1","appName":"reprostim-videocapture","cx":1920,"cy":1080,"frameRate":"60","serial":"B208220302195","start_ts":"2024.05.28.11.08.37.837","ts":"2024.05.28.11.08.37.837","type":"session_begin","vDev":"USB Capture DVI+","version":"1.8.0.225"} :REPROSTIM-METADATA-JSON
2024-05-28 11:08:37.838 [info] [854674] 2024.05.28.11.08.37.837: <SYSTEMCALL> ffmpeg -f alsa -ac 2 -thread_queue_size 40960 -i hw:2,1 -f v4l2 -input_format yuyv422 -framerate 60 -video_size 1920x1080 -thread_queue_size 40960 -i /dev/video2 -c:v libx264 -flush_packets 1 -copyts   -acodec aac /data/reprostim/Videos/2024/05/2024.05.28.11.08.37.837_.mkv 2>&1
2024-05-28 11:08:37.923 [info] [854674] ffmpeg version 5.1.4-0+deb12u1 Copyright (c) 2000-2023 the FFmpeg developers

2024-05-28 11:08:37.923 [info] [854674]   built with gcc 12 (Debian 12.2.0-14)

2024-05-28 11:08:37.923 [info] [854674]   configuration: --prefix=/usr --extra-version=0+deb12u1 --toolchain=hardened --libdir=/usr/lib/x86_64-linux-gnu --incdir=/usr/
2024-05-28 11:08:37.923 [info] [854674] include/x86_64-linux-gnu --arch=amd64 --enable-gpl --disable-stripping --enable-gnutls --enable-ladspa --enable-libaom --enable
2024-05-28 11:08:37.923 [info] [854674] -libass --enable-libbluray --enable-libbs2b --enable-libcaca --enable-libcdio --enable-libcodec2 --enable-libdav1d --enable-lib
2024-05-28 11:08:37.923 [info] [854674] flite --enable-libfontconfig --enable-libfreetype --enable-libfribidi --enable-libglslang --enable-libgme --enable-libgsm --ena
2024-05-28 11:08:37.923 [info] [854674] ble-libjack --enable-libmp3lame --enable-libmysofa --enable-libopenjpeg --enable-libopenmpt --enable-libopus --enable-libpulse 
2024-05-28 11:08:37.923 [info] [854674] --enable-librabbitmq --enable-librist --enable-librubberband --enable-libshine --enable-libsnappy --enable-libsoxr --enable-lib
2024-05-28 11:08:37.923 [info] [854674] speex --enable-libsrt --enable-libssh --enable-libsvtav1 --enable-libtheora --enable-libtwolame --enable-libvidstab --enable-li
2024-05-28 11:08:37.923 [info] [854674] bvorbis --enable-libvpx --enable-libwebp --enable-libx265 --enable-libxml2 --enable-libxvid --enable-libzimg --enable-libzmq --
2024-05-28 11:08:37.923 [info] [854674] enable-libzvbi --enable-lv2 --enable-omx --enable-openal --enable-opencl --enable-opengl --enable-sdl2 --disable-sndio --enable
2024-05-28 11:08:37.923 [info] [854674] -libjxl --enable-pocketsphinx --enable-librsvg --enable-libmfx --enable-libdc1394 --enable-libdrm --enable-libiec61883 --enable
2024-05-28 11:08:37.923 [info] [854674] -chromaprint --enable-frei0r --enable-libx264 --enable-libplacebo --enable-librav1e --enable-shared

2024-05-28 11:08:37.923 [info] [854674]   libavutil      57. 28.100 / 57. 28.100

2024-05-28 11:08:37.923 [info] [854674]   libavcodec     59. 37.100 / 59. 37.100

2024-05-28 11:08:37.923 [info] [854674]   libavformat    59. 27.100 / 59. 27.100

2024-05-28 11:08:37.923 [info] [854674]   libavdevice    59.  7.100 / 59.  7.100

2024-05-28 11:08:37.923 [info] [854674]   libavfilter     8. 44.100 /  8. 44.100

2024-05-28 11:08:37.923 [info] [854674]   libswscale      6.  7.100 /  6.  7.100

2024-05-28 11:08:37.923 [info] [854674]   libswresample   4.  7.100 /  4.  7.100

2024-05-28 11:08:37.923 [info] [854674]   libpostproc    56.  6.100 / 56.  6.100

2024-05-28 11:08:37.929 [info] [854674] Guessed Channel Layout for Input Stream #0.0 : stereo

2024-05-28 11:08:37.929 [info] [854674] Input #0, alsa, from 'hw:2,1':

2024-05-28 11:08:37.929 [info] [854674]   Duration: N/A, start: 1716908917.928188, bitrate: 1536 kb/s

2024-05-28 11:08:37.929 [info] [854674]   Stream #0:0: Audio: pcm_s16le, 48000 Hz, stereo, s16, 1536 kb/s

2024-05-28 11:08:37.938 [info] [3719071] 2024.05.28.11.08.37.837:	Started Recording: 
2024-05-28 11:08:37.938 [info] [3719071] Apct Rat: 1920x1080
2024-05-28 11:08:37.938 [info] [3719071] FR: 60
2024-05-28 11:08:37.966 [info] [854674] [video4linux2,v4l2 @ 0x55bec0746200] Dequeued v4l2 buffer contains corrupted data (0 bytes).

2024-05-28 11:08:37.967 [info] [854674] Input #1, video4linux2,v4l2, from '/dev/video2':

2024-05-28 11:08:37.967 [info] [854674]   Duration: N/A, start: 0.000000, bitrate: 1990656 kb/s

2024-05-28 11:08:37.967 [info] [854674]   Stream #1:0: Video: rawvideo (YUY2 / 0x32595559), yuyv422, 1920x1080, 1990656 kb/s, 60 fps, 60 tbr, 1000k tbn

2024-05-28 11:08:37.967 [info] [854674] Stream mapping:

2024-05-28 11:08:37.967 [info] [854674]   Stream #1:0 -> #0:0 (rawvideo (native) -> h264 (libx264))

2024-05-28 11:08:37.967 [info] [854674]   Stream #0:0 -> #0:1 (pcm_s16le (native) -> aac (native))

2024-05-28 11:08:37.967 [info] [854674] Press [q] to stop, [?] for help

2024-05-28 11:08:37.967 [info] [854674] [video4linux2,v4l2 @ 0x55bec0746200] Dequeued v4l2 buffer contains corrupted data (0 bytes).

2024-05-28 11:08:38.039 [info] [854674]     Last message repeated 30 times

2024-05-28 11:08:38.039 [info] [854674] [libx264 @ 0x55bec0749900] using cpu capabilities: MMX2 SSE2Fast SSSE3 SSE4.2 AVX FMA3 BMI2 AVX2

2024-05-28 11:08:38.046 [info] [854674] [libx264 @ 0x55bec0749900] profile High 4:2:2, level 4.2, 4:2:2, 8-bit

2024-05-28 11:08:38.047 [info] [854674] [libx264 @ 0x55bec0749900] 264 - core 164 r3095 baee400 - H.264/MPEG-4 AVC codec - Copyleft 2003-2022 - http://www.videolan.org
2024-05-28 11:08:38.047 [info] [854674] /x264.html - options: cabac=1 ref=3 deblock=1:0:0 analyse=0x3:0x113 me=hex subme=7 psy=1 psy_rd=1.00:0.00 mixed_ref=1 me_range=
2024-05-28 11:08:38.047 [info] [854674] 16 chroma_me=1 trellis=1 8x8dct=1 cqm=0 deadzone=21,11 fast_pskip=1 chroma_qp_offset=-2 threads=6 lookahead_threads=1 sliced_th
2024-05-28 11:08:38.047 [info] [854674] reads=0 nr=0 decimate=1 interlaced=0 bluray_compat=0 constrained_intra=0 bframes=3 b_pyramid=2 b_adapt=1 b_bias=0 direct=1 weig
2024-05-28 11:08:38.047 [info] [854674] htb=1 open_gop=0 weightp=2 keyint=250 keyint_min=25 scenecut=40 intra_refresh=0 rc_lookahead=40 rc=crf mbtree=1 crf=23.0 qcomp=
2024-05-28 11:08:38.047 [info] [854674] 0.60 qpmin=0 qpmax=69 qpstep=4 ip_ratio=1.40 aq=1:1.00

2024-05-28 11:08:38.052 [info] [854674] Output #0, matroska, to '/data/reprostim/Videos/2024/05/2024.05.28.11.08.37.837_.mkv':

2024-05-28 11:08:38.052 [info] [854674]   Metadata:

2024-05-28 11:08:38.052 [info] [854674]     encoder         : Lavf59.27.100

2024-05-28 11:08:38.053 [info] [854674]   Stream #0:0: Video: h264 (H264 / 0x34363248), yuv422p(tv, progressive), 1920x1080, q=2-31, 60 fps, 1k tbn

2024-05-28 11:08:38.053 [info] [854674]     Metadata:

2024-05-28 11:08:38.053 [info] [854674]       encoder         : Lavc59.37.100 libx264

2024-05-28 11:08:38.053 [info] [854674]     Side data:

2024-05-28 11:08:38.053 [info] [854674]       cpb: bitrate max/min/avg: 0/0/0 buffer size: 0 vbv_delay: N/A

2024-05-28 11:08:38.053 [info] [854674]   Stream #0:1: Audio: aac (LC) ([255][0][0][0] / 0x00FF), 48000 Hz, stereo, fltp, 128 kb/s

2024-05-28 11:08:38.053 [info] [854674]     Metadata:

2024-05-28 11:08:38.053 [info] [854674]       encoder         : Lavc59.37.100 aac

2024-05-28 11:08:38.556 [info] [854674] frame=    1 fps=0.0 q=0.0 size=       1kB time=00:00:00.00 bitrate=N/A speed=   0x    frame=   33 fps=0.0 q=0.0 size=       1k
2024-05-28 11:08:39.067 [info] [854674] B time=00:00:00.00 bitrate=N/A speed=   0x    frame=   55 fps= 50 q=31.0 size=       1kB time=473798:52:15.74 bitrate=   0.0kb
2024-05-28 11:08:39.630 [info] [854674] its/s speed=1.55e+09x    frame=   91 fps= 55 q=31.0 size=       1kB time=473798:52:15.74 bitrate=   0.0kbits/s speed=1.03e+09x
2024-05-28 11:08:40.655 [info] [854674]     frame=  127 fps= 58 q=31.0 size=       1kB time=473798:52:15.74 bitrate=   0.0kbits/s speed=7.81e+08x    frame=  159 fps=
2024-05-28 11:08:41.159 [info] [854674]  59 q=31.0 size=       1kB time=473798:52:15.74 bitrate=   0.0kbits/s speed=6.35e+08x    frame=  189 fps= 59 q=31.0 size=     
2024-05-28 11:08:41.665 [info] [854674]   1kB time=473798:52:15.74 bitrate=   0.0kbits/s speed=5.35e+08x    frame=  219 fps= 59 q=31.0 size=       1kB time=473798:52:
2024-05-28 11:08:42.172 [info] [854674] 15.74 bitrate=   0.0kbits/s speed=4.61e+08x    frame=  250 fps= 59 q=31.0 size=       1kB time=473798:52:15.74 bitrate=   0.0k
2024-05-28 11:08:42.679 [info] [854674] bits/s speed=4.06e+08x    frame=  280 fps= 59 q=31.0 size=       1kB time=473798:52:15.74 bitrate=   0.0kbits/s speed=3.62e+08
2024-05-28 11:08:43.686 [info] [854674] x    frame=  311 fps= 60 q=31.0 size=     249kB time=473798:52:15.74 bitrate=   0.0kbits/s speed=3.27e+08x    frame=  341 fps
2024-05-28 11:08:44.035 [info] [3719071] REPROSTIM-METADATA-JSON: {"message":":\tStopped recording because something changed.","start_ts":"2024.05.28.11.08.37.837","stop_ts":"2024.05.28.11.08.44.034","ts":"2024.05.28.11.08.44.034","type":"capture_stop"} :REPROSTIM-METADATA-JSON
2024-05-28 11:08:44.035 [info] [3719071] stop record says: terminating ffmpeg with SIGINT
2024-05-28 11:08:44.056 [info] [3719071] ffmpeg pid: 854676

2024-05-28 11:08:44.056 [info] [3719071] <> PID of ffmpeg	===> 854676

2024-05-28 11:08:44.575 [info] [854674] = 60 q=31.0 size=     249kB time=473798:52:15.74 bitrate=   0.0kbits/s speed=2.98e+08x    frame=  363 fps= 55 q=-1.0 Lsize=   
2024-05-28 11:08:44.575 [info] [854674]   376kB time=473798:52:15.80 bitrate=   0.0kbits/s speed=2.58e+08x    

2024-05-28 11:08:44.575 [info] [854674] video:372kB audio:1kB subtitle:0kB other streams:0kB global headers:0kB muxing overhead: 0.838826%

2024-05-28 11:08:44.576 [info] [854674] [libx264 @ 0x55bec0749900] frame I:2     Avg QP:20.09  size:102001

2024-05-28 11:08:44.576 [info] [854674] [libx264 @ 0x55bec0749900] frame P:92    Avg QP:22.38  size:  1511

2024-05-28 11:08:44.576 [info] [854674] [libx264 @ 0x55bec0749900] frame B:269   Avg QP:29.24  size:   139

2024-05-28 11:08:44.576 [info] [854674] [libx264 @ 0x55bec0749900] consecutive B-frames:  0.6%  1.7%  0.8% 97.0%

2024-05-28 11:08:44.576 [info] [854674] [libx264 @ 0x55bec0749900] mb I  I16..4: 72.3%  8.4% 19.4%

2024-05-28 11:08:44.576 [info] [854674] [libx264 @ 0x55bec0749900] mb P  I16..4:  0.1%  0.5%  0.0%  P16..4:  3.6%  0.2%  0.2%  0.0%  0.0%    skip:95.3%

2024-05-28 11:08:44.576 [info] [854674] [libx264 @ 0x55bec0749900] mb B  I16..4:  0.0%  0.0%  0.0%  B16..8:  1.0%  0.0%  0.0%  direct: 0.0%  skip:98.9%  L0:21.5% L1:77
2024-05-28 11:08:44.576 [info] [854674] .8% BI: 0.6%

2024-05-28 11:08:44.576 [info] [854674] [libx264 @ 0x55bec0749900] 8x8 transform intra:25.2% inter:56.7%

2024-05-28 11:08:44.576 [info] [854674] [libx264 @ 0x55bec0749900] coded y,uvDC,uvAC intra: 9.5% 34.4% 14.5% inter: 0.2% 0.7% 0.2%

2024-05-28 11:08:44.576 [info] [854674] [libx264 @ 0x55bec0749900] i16 v,h,dc,p: 85% 12%  3%  0%

2024-05-28 11:08:44.576 [info] [854674] [libx264 @ 0x55bec0749900] i8 v,h,dc,ddl,ddr,vr,hd,vl,hu: 12%  4% 83%  0%  0%  0%  0%  0%  0%

2024-05-28 11:08:44.576 [info] [854674] [libx264 @ 0x55bec0749900] i4 v,h,dc,ddl,ddr,vr,hd,vl,hu: 42% 22% 18%  2%  3%  3%  4%  4%  3%

2024-05-28 11:08:44.576 [info] [854674] [libx264 @ 0x55bec0749900] i8c dc,h,v,p: 72% 12% 15%  1%

2024-05-28 11:08:44.576 [info] [854674] [libx264 @ 0x55bec0749900] Weighted P-Frames: Y:0.0% UV:0.0%

2024-05-28 11:08:44.576 [info] [854674] [libx264 @ 0x55bec0749900] ref P L0: 67.3%  2.7% 22.5%  7.5%

2024-05-28 11:08:44.576 [info] [854674] [libx264 @ 0x55bec0749900] ref B L0: 63.0% 31.7%  5.3%

2024-05-28 11:08:44.576 [info] [854674] [libx264 @ 0x55bec0749900] ref B L1: 94.7%  5.3%

2024-05-28 11:08:44.576 [info] [854674] [libx264 @ 0x55bec0749900] kb/s:502.99

2024-05-28 11:08:44.578 [info] [854674] [aac @ 0x55bec074aa40] Qavg: 138.324

2024-05-28 11:08:44.613 [info] [854674] Exiting normally, received signal 2.

2024-05-28 11:08:44.617 [info] [854674] :	Ffmpeg thread terminated. Saving video /data/reprostim/Videos/2024/05/2024.05.28.11.08.37.837_2024.05.28.11.08.44.617.mkv
2024-05-28 11:08:44.617 [info] [854674] REPROSTIM-METADATA-JSON: {"message":"ffmpeg thread terminated","start_ts":"2024.05.28.11.08.37.837","ts":"2024.05.28.11.08.44.617","type":"session_end"} :REPROSTIM-METADATA-JSON
2024-05-28 11:08:44.617 [info] [854674] Session logging end: session_logger_2024.05.28.11.08.37.837
